<svg xmlns="http://www.w3.org/2000/svg" version="1.1" xmlns:xlink="http://www.w3.org/1999/xlink" xmlns:svgjs="http://svgjs.dev/svgjs" width="1500" height="1352" viewBox="0 0 1500 1352"><g transform="matrix(1,0,0,1,-2.6629351899201765,-2.1806451612903857)"><svg viewBox="0 0 275 248" data-background-color="#7902f5" preserveAspectRatio="xMidYMid meet" height="1352" width="1500" xmlns="http://www.w3.org/2000/svg" xmlns:xlink="http://www.w3.org/1999/xlink"><g id="tight-bounds" transform="matrix(1,0,0,1,0.48820478481869145,0.4000000000000057)"><svg viewBox="0 0 274.0235904303626 247.2" height="247.2" width="274.0235904303626"><g><svg viewBox="0 0 395.52 356.803382681196" height="247.2" width="274.0235904303626"><g transform="matrix(1,0,0,1,0,214.9266983916997)"><svg viewBox="0 0 395.52 141.87668428949632" height="141.87668428949632" width="395.52"><g id="textblocktransform"><svg viewBox="0 0 395.52 141.87668428949632" height="141.87668428949632" width="395.52" id="textblock"><g><svg viewBox="0 0 395.52 79.8603869246164" height="79.8603869246164" width="395.52"><g transform="matrix(1,0,0,1,0,0)"><svg width="395.52" viewBox="3 -34.55 224.83 45.4" height="79.8603869246164" data-palette-color="#e1e1e3"><path d="M25.35 0L18.5 0 12.4-13.95 11.8-13.95 9.35-13.95 9.35 0 3 0 3-34.55 11.15-34.55Q23.65-34.55 23.65-24.4L23.65-24.4Q23.65-21.25 22.25-18.82 20.85-16.4 18.05-15.15L18.05-15.15 25.35 0ZM11.45-18.55Q14.4-18.55 15.73-19.95 17.05-21.35 17.05-24.4L17.05-24.4Q17.05-27.25 15.68-28.58 14.3-29.9 11.15-29.9L11.15-29.9 9.35-29.9 9.35-18.55 11.45-18.55ZM45.3-6.4Q45.3-5.1 45.65-4.48 46-3.85 46.8-3.45L46.8-3.45 45.55 0.65Q43.5 0.4 42.27-0.45 41.05-1.3 40.45-3.05L40.45-3.05Q38.15 0.75 34 0.75L34 0.75Q30.7 0.75 28.75-1.48 26.8-3.7 26.8-7.4L26.8-7.4Q26.8-11.7 29.47-13.95 32.15-16.2 37.25-16.2L37.25-16.2 39.3-16.2 39.3-18.05Q39.3-20.55 38.42-21.58 37.55-22.6 35.6-22.6L35.6-22.6Q33.25-22.6 29.75-21.3L29.75-21.3 28.35-25.3Q30.35-26.2 32.5-26.68 34.65-27.15 36.6-27.15L36.6-27.15Q45.3-27.15 45.3-18.35L45.3-18.35 45.3-6.4ZM35.65-3.7Q38.05-3.7 39.3-7L39.3-7 39.3-12.55 37.85-12.55Q35.3-12.55 34.12-11.4 32.95-10.25 32.95-7.85L32.95-7.85Q32.95-5.8 33.65-4.75 34.35-3.7 35.65-3.7L35.65-3.7ZM63.3-27.15Q67.2-27.15 69.2-23.58 71.2-20 71.2-13.3L71.2-13.3Q71.2-6.8 68.92-3.03 66.65 0.75 62.6 0.75L62.6 0.75Q59.4 0.75 57.25-2.1L57.25-2.1 57.25 10.15 51.1 10.85 51.1-26.45 56.55-26.45 56.8-23.25Q58.1-25.25 59.7-26.2 61.3-27.15 63.3-27.15L63.3-27.15ZM60.95-3.95Q62.85-3.95 63.85-6.13 64.84-8.3 64.84-13.25L64.84-13.25Q64.84-18.45 64-20.5 63.15-22.55 61.35-22.55L61.35-22.55Q59.05-22.55 57.25-19.25L57.25-19.25 57.25-6.45Q58.85-3.95 60.95-3.95L60.95-3.95ZM86.94-5L89.09-1.2Q86.64 0.75 83.34 0.75L83.34 0.75Q79.89 0.75 78.09-1.23 76.29-3.2 76.29-6.6L76.29-6.6 76.29-22 73.19-22 73.19-26.45 76.29-26.45 76.29-32.3 82.44-33.05 82.44-26.45 87.44-26.45 86.84-22 82.44-22 82.44-6.6Q82.44-4.2 84.49-4.2L84.49-4.2Q85.14-4.2 85.64-4.38 86.14-4.55 86.94-5L86.94-5ZM109.79-26.45L109.79 0 104.44 0 104.14-3.35Q102.89-1.3 101.34-0.28 99.79 0.75 97.74 0.75L97.74 0.75Q94.84 0.75 93.17-1.3 91.49-3.35 91.49-6.65L91.49-6.65 91.49-26.45 97.64-26.45 97.64-7Q97.64-3.9 99.74-3.9L99.74-3.9Q100.94-3.9 101.89-4.83 102.84-5.75 103.64-7.45L103.64-7.45 103.64-26.45 109.79-26.45ZM127.14-27.1Q128.29-27.1 129.19-26.75L129.19-26.75 128.19-20.85Q127.19-21.1 126.34-21.1L126.34-21.1Q124.44-21.1 123.34-19.45 122.24-17.8 121.64-14.55L121.64-14.55 121.64 0 115.49 0 115.49-26.45 120.84-26.45 121.29-21.85Q123.14-27.1 127.14-27.1L127.14-27.1ZM150.89-13.85Q150.89-13.4 150.74-11.3L150.74-11.3 137.09-11.3Q137.29-7.2 138.51-5.58 139.74-3.95 141.99-3.95L141.99-3.95Q143.54-3.95 144.79-4.48 146.04-5 147.49-6.15L147.49-6.15 150.04-2.65Q146.54 0.75 141.64 0.75L141.64 0.75Q136.44 0.75 133.66-2.85 130.89-6.45 130.89-13L130.89-13Q130.89-19.55 133.54-23.35 136.19-27.15 141.04-27.15L141.04-27.15Q145.69-27.15 148.29-23.78 150.89-20.4 150.89-13.85L150.89-13.85ZM144.89-15.3L144.89-15.65Q144.89-19.4 143.99-21.13 143.09-22.85 141.09-22.85L141.09-22.85Q139.24-22.85 138.26-21.18 137.29-19.5 137.09-15.3L137.09-15.3 144.89-15.3ZM162.58-34.55L184.13-34.55 183.43-29.55 176.33-29.55 176.33 0 169.98 0 169.98-29.55 162.58-29.55 162.58-34.55ZM202.08-34.55L208.33-34.55 200.33 0 192.38 0 184.08-34.55 190.53-34.55 196.43-5.6 202.08-34.55ZM216.53-26.5L221.58-26.5 221.58-19 227.83-19 227.83-14.1 221.58-14.1 221.58-6.7 216.53-6.7 216.53-14.1 210.28-14.1 210.28-19 216.53-19 216.53-26.5Z" opacity="1" transform="matrix(1,0,0,1,0,0)" fill="#e1e1e3" class="wordmark-text-0" data-fill-palette-color="primary" id="text-0"></path></svg></g></svg></g><g transform="matrix(1,0,0,1,0,98.71350762823215)"><svg viewBox="0 0 395.52 43.16317666126418" height="43.16317666126418" width="395.52"><g transform="matrix(1,0,0,1,0,0)"><svg width="395.52" viewBox="1.75 -39.65 370.15 40.4" height="43.16317666126418" data-palette-color="#e1e1e3"><path d="M15.25-35.25Q18.1-35.25 20.35-34.23 22.6-33.2 24.6-31.25L24.6-31.25 21.4-27.95Q19.85-29.3 18.5-29.88 17.15-30.45 15.45-30.45L15.45-30.45Q12.15-30.45 10.28-27.5 8.4-24.55 8.4-17.3L8.4-17.3Q8.4-12.2 9.08-9.33 9.75-6.45 11.08-5.3 12.4-4.15 14.55-4.15L14.55-4.15Q16.8-4.15 18.65-5.4L18.65-5.4 18.65-14.75 14.75-14.75 14.1-19.5 24.7-19.5 24.7-2.6Q22.55-1.05 19.93-0.18 17.3 0.7 14.6 0.7L14.6 0.7Q8.15 0.7 4.95-3.68 1.75-8.05 1.75-17.3L1.75-17.3Q1.75-23.3 3.53-27.33 5.3-31.35 8.35-33.3 11.4-35.25 15.25-35.25L15.25-35.25ZM29.75-26.45L35.9-26.45 35.9 0 29.75 0 29.75-26.45ZM32.8-39.65Q34.45-39.65 35.47-38.6 36.5-37.55 36.5-35.9L36.5-35.9Q36.5-34.3 35.47-33.25 34.45-32.2 32.8-32.2L32.8-32.2Q31.15-32.2 30.12-33.25 29.1-34.3 29.1-35.9L29.1-35.9Q29.1-37.55 30.12-38.6 31.15-39.65 32.8-39.65L32.8-39.65ZM47.2 0.75Q44.5 0.75 42.92-0.93 41.35-2.6 41.35-5.4L41.35-5.4 41.35-37.05 47.5-37.7 47.5-5.65Q47.5-5 47.8-4.6 48.1-4.2 48.7-4.2L48.7-4.2Q49.05-4.2 49.37-4.3 49.7-4.4 49.8-4.4L49.8-4.4 51-0.2Q49.3 0.75 47.2 0.75L47.2 0.75ZM66.19-27.15Q70.04-27.15 72.09-23.65 74.14-20.15 74.14-13.25L74.14-13.25Q74.14-6.75 71.84-3 69.54 0.75 65.54 0.75L65.54 0.75Q63.79 0.75 62.34-0.13 60.89-1 59.84-2.55L59.84-2.55 59.49 0 54.04 0 54.04-37 60.19-37.65 60.19-23.6Q61.24-25.3 62.77-26.23 64.29-27.15 66.19-27.15L66.19-27.15ZM63.89-3.9Q65.74-3.9 66.77-6 67.79-8.1 67.79-13.25L67.79-13.25Q67.79-18.6 66.87-20.58 65.94-22.55 64.24-22.55L64.24-22.55Q63.09-22.55 62.04-21.6 60.99-20.65 60.19-19.1L60.19-19.1 60.19-6.7Q60.84-5.45 61.82-4.67 62.79-3.9 63.89-3.9L63.89-3.9ZM97.59-13.85Q97.59-13.4 97.44-11.3L97.44-11.3 83.79-11.3Q83.99-7.2 85.22-5.58 86.44-3.95 88.69-3.95L88.69-3.95Q90.24-3.95 91.49-4.48 92.74-5 94.19-6.15L94.19-6.15 96.74-2.65Q93.24 0.75 88.34 0.75L88.34 0.75Q83.14 0.75 80.37-2.85 77.59-6.45 77.59-13L77.59-13Q77.59-19.55 80.24-23.35 82.89-27.15 87.74-27.15L87.74-27.15Q92.39-27.15 94.99-23.78 97.59-20.4 97.59-13.85L97.59-13.85ZM91.59-15.3L91.59-15.65Q91.59-19.4 90.69-21.13 89.79-22.85 87.79-22.85L87.79-22.85Q85.94-22.85 84.97-21.18 83.99-19.5 83.79-15.3L83.79-15.3 91.59-15.3ZM113.54-27.1Q114.69-27.1 115.59-26.75L115.59-26.75 114.59-20.85Q113.59-21.1 112.74-21.1L112.74-21.1Q110.84-21.1 109.74-19.45 108.64-17.8 108.04-14.55L108.04-14.55 108.04 0 101.89 0 101.89-26.45 107.24-26.45 107.69-21.85Q109.54-27.1 113.54-27.1L113.54-27.1ZM129.59-5L131.74-1.2Q129.29 0.75 125.99 0.75L125.99 0.75Q122.54 0.75 120.74-1.23 118.94-3.2 118.94-6.6L118.94-6.6 118.94-22 115.84-22 115.84-26.45 118.94-26.45 118.94-32.3 125.09-33.05 125.09-26.45 130.09-26.45 129.49-22 125.09-22 125.09-6.6Q125.09-4.2 127.14-4.2L127.14-4.2Q127.79-4.2 128.29-4.38 128.79-4.55 129.59-5L129.59-5ZM161.03-6.4Q161.03-5.1 161.38-4.48 161.73-3.85 162.53-3.45L162.53-3.45 161.28 0.65Q159.23 0.4 158.01-0.45 156.78-1.3 156.18-3.05L156.18-3.05Q153.88 0.75 149.73 0.75L149.73 0.75Q146.43 0.75 144.48-1.48 142.53-3.7 142.53-7.4L142.53-7.4Q142.53-11.7 145.21-13.95 147.88-16.2 152.98-16.2L152.98-16.2 155.03-16.2 155.03-18.05Q155.03-20.55 154.16-21.58 153.28-22.6 151.33-22.6L151.33-22.6Q148.98-22.6 145.48-21.3L145.48-21.3 144.08-25.3Q146.08-26.2 148.23-26.68 150.38-27.15 152.33-27.15L152.33-27.15Q161.03-27.15 161.03-18.35L161.03-18.35 161.03-6.4ZM151.38-3.7Q153.78-3.7 155.03-7L155.03-7 155.03-12.55 153.58-12.55Q151.03-12.55 149.86-11.4 148.68-10.25 148.68-7.85L148.68-7.85Q148.68-5.8 149.38-4.75 150.08-3.7 151.38-3.7L151.38-3.7ZM179.18-27.15Q182.03-27.15 183.68-25.1 185.33-23.05 185.33-19.6L185.33-19.6 185.33 0 179.18 0 179.18-18.9Q179.18-20.8 178.65-21.63 178.13-22.45 177.13-22.45L177.13-22.45Q175.03-22.45 172.98-18.5L172.98-18.5 172.98 0 166.83 0 166.83-26.45 172.18-26.45 172.63-23Q173.98-25.1 175.5-26.13 177.03-27.15 179.18-27.15L179.18-27.15ZM203.83-37.7L209.98-37.05 209.98 0 204.53 0 204.23-3.05Q201.88 0.75 198.18 0.75L198.18 0.75Q194.08 0.75 191.9-2.93 189.73-6.6 189.73-13.2L189.73-13.2Q189.73-17.4 190.85-20.58 191.98-23.75 193.98-25.45 195.98-27.15 198.58-27.15L198.58-27.15Q201.78-27.15 203.83-24.5L203.83-24.5 203.83-37.7ZM199.93-3.9Q201.08-3.9 202-4.7 202.93-5.5 203.83-7L203.83-7 203.83-19.85Q202.23-22.55 200.18-22.55L200.18-22.55Q196.13-22.55 196.13-13.25L196.13-13.25Q196.13-8.2 197.13-6.05 198.13-3.9 199.93-3.9L199.93-3.9ZM234.42-35.25Q237.42-35.25 239.72-34.2 242.02-33.15 243.97-31.05L243.97-31.05 241.02-27.65Q239.47-29.05 238-29.75 236.52-30.45 234.87-30.45L234.87-30.45Q232.97-30.45 231.87-29.28 230.77-28.1 230.77-26.2L230.77-26.2Q230.77-24.3 231.92-23.1 233.07-21.9 236.42-20.6L236.42-20.6Q240.72-18.85 242.75-16.5 244.77-14.15 244.77-9.85L244.77-9.85Q244.77-6.9 243.42-4.48 242.07-2.05 239.55-0.65 237.02 0.75 233.67 0.75L233.67 0.75Q230.22 0.75 227.67-0.48 225.12-1.7 223.02-3.95L223.02-3.95 226.22-7.45Q228.02-5.85 229.67-5 231.32-4.15 233.27-4.15L233.27-4.15Q235.57-4.15 236.85-5.58 238.12-7 238.12-9.45L238.12-9.45Q238.12-11.6 237-12.98 235.87-14.35 232.82-15.5L232.82-15.5Q228.22-17.35 226.2-19.75 224.17-22.15 224.17-25.75L224.17-25.75Q224.17-28.5 225.5-30.65 226.82-32.8 229.17-34.02 231.52-35.25 234.42-35.25L234.42-35.25ZM266.92-26.45L266.92 0 261.57 0 261.27-3.35Q260.02-1.3 258.47-0.28 256.92 0.75 254.87 0.75L254.87 0.75Q251.97 0.75 250.29-1.3 248.62-3.35 248.62-6.65L248.62-6.65 248.62-26.45 254.77-26.45 254.77-7Q254.77-3.9 256.87-3.9L256.87-3.9Q258.07-3.9 259.02-4.83 259.97-5.75 260.77-7.45L260.77-7.45 260.77-26.45 266.92-26.45ZM278.22 0.75Q275.52 0.75 273.94-0.93 272.37-2.6 272.37-5.4L272.37-5.4 272.37-37.05 278.52-37.7 278.52-5.65Q278.52-5 278.82-4.6 279.12-4.2 279.72-4.2L279.72-4.2Q280.07-4.2 280.39-4.3 280.72-4.4 280.82-4.4L280.82-4.4 282.02-0.2Q280.32 0.75 278.22 0.75L278.22 0.75ZM290.66 0.75Q287.96 0.75 286.39-0.93 284.81-2.6 284.81-5.4L284.81-5.4 284.81-37.05 290.96-37.7 290.96-5.65Q290.96-5 291.26-4.6 291.56-4.2 292.16-4.2L292.16-4.2Q292.51-4.2 292.84-4.3 293.16-4.4 293.26-4.4L293.26-4.4 294.46-0.2Q292.76 0.75 290.66 0.75L290.66 0.75ZM297.51-26.45L303.66-26.45 303.66 0 297.51 0 297.51-26.45ZM300.56-39.65Q302.21-39.65 303.24-38.6 304.26-37.55 304.26-35.9L304.26-35.9Q304.26-34.3 303.24-33.25 302.21-32.2 300.56-32.2L300.56-32.2Q298.91-32.2 297.89-33.25 296.86-34.3 296.86-35.9L296.86-35.9Q296.86-37.55 297.89-38.6 298.91-39.65 300.56-39.65L300.56-39.65ZM321.76-26.45L327.81-26.45 320.91 0 313.66 0 306.56-26.45 312.91-26.45 317.26-4.95 321.76-26.45ZM347.61-6.4Q347.61-5.1 347.96-4.48 348.31-3.85 349.11-3.45L349.11-3.45 347.86 0.65Q345.81 0.4 344.58-0.45 343.36-1.3 342.76-3.05L342.76-3.05Q340.46 0.75 336.31 0.75L336.31 0.75Q333.01 0.75 331.06-1.48 329.11-3.7 329.11-7.4L329.11-7.4Q329.11-11.7 331.78-13.95 334.46-16.2 339.56-16.2L339.56-16.2 341.61-16.2 341.61-18.05Q341.61-20.55 340.73-21.58 339.86-22.6 337.91-22.6L337.91-22.6Q335.56-22.6 332.06-21.3L332.06-21.3 330.66-25.3Q332.66-26.2 334.81-26.68 336.96-27.15 338.91-27.15L338.91-27.15Q347.61-27.15 347.61-18.35L347.61-18.35 347.61-6.4ZM337.96-3.7Q340.36-3.7 341.61-7L341.61-7 341.61-12.55 340.16-12.55Q337.61-12.55 336.43-11.4 335.26-10.25 335.26-7.85L335.26-7.85Q335.26-5.8 335.96-4.75 336.66-3.7 337.96-3.7L337.96-3.7ZM365.75-27.15Q368.6-27.15 370.25-25.1 371.9-23.05 371.9-19.6L371.9-19.6 371.9 0 365.75 0 365.75-18.9Q365.75-20.8 365.23-21.63 364.7-22.45 363.7-22.45L363.7-22.45Q361.6-22.45 359.55-18.5L359.55-18.5 359.55 0 353.4 0 353.4-26.45 358.75-26.45 359.2-23Q360.55-25.1 362.08-26.13 363.6-27.15 365.75-27.15L365.75-27.15Z" opacity="1" transform="matrix(1,0,0,1,0,0)" fill="#e1e1e3" class="slogan-text-1" data-fill-palette-color="secondary" id="text-1"></path></svg></g></svg></g></svg></g></svg></g><g transform="matrix(1,0,0,1,115.87560374391018,0)"><svg viewBox="0 0 163.76879251217963 196.07357768808396" height="196.07357768808396" width="163.76879251217963"><g><svg xmlns="http://www.w3.org/2000/svg" xmlns:xlink="http://www.w3.org/1999/xlink" version="1.1" x="0" y="0" viewBox="5.999164783092315 3 79.96483521690769 95.73857808746511" enable-background="new 0 0 100 100" xml:space="preserve" height="196.07357768808396" width="163.76879251217963" class="icon-icon-0" data-fill-palette-color="accent" id="icon-0"><g fill="#ead6fb" data-fill-palette-color="accent"><path fill="#ead6fb" d="M26.66 13.266V76.829C23.437 75.913 19.511 76.117 15.688 77.717 8.401 80.765 4.346 87.618 6.641 93.018 8.928 98.425 16.695 100.335 23.981 97.289 30.075 94.742 33.846 89.54 33.598 84.741H33.666V37.183L78.71 30.118V65.504C75.536 64.677 71.7 64.925 67.981 66.48 60.699 69.527 56.643 76.381 58.934 81.785 61.226 87.191 68.993 89.103 76.278 86.053 82.093 83.62 85.78 78.77 85.896 74.159H85.964V3zM78.711 19.331L33.667 27.13V22.108L78.711 15.045z" data-fill-palette-color="accent"></path></g></svg></g></svg></g><g></g></svg></g><defs></defs></svg><rect width="274.0235904303626" height="247.2" fill="none" stroke="none" visibility="hidden"></rect></g></svg></g></svg>