<?xml version="1.0" encoding="UTF-8"?> <svg xmlns="http://www.w3.org/2000/svg" width="299" height="210" viewBox="0 0 299 210" fill="none"><rect x="0.333252" width="298.667" height="209.25" rx="16" fill="#151515"></rect><path d="M146.617 112.661C146.617 113.319 146.371 113.881 145.88 114.347C145.388 114.814 144.815 115.05 144.158 115.05H138.968C138.31 115.05 137.748 114.814 137.282 114.347C136.815 113.881 136.579 113.319 136.579 112.661V97.6382H127.594V113.434C127.594 116.571 128.518 118.99 130.365 120.697C132.212 122.403 134.682 123.257 137.768 123.257H146.612C149.373 123.257 151.561 122.343 153.178 120.521C154.794 118.694 155.597 116.335 155.597 113.434V97.6382H146.612V112.661H146.617Z" fill="#1CE783"></path><path d="M118.329 99.9219C116.456 98.401 114.002 97.6381 110.96 97.6381H105.203C104.36 97.6381 103.637 97.7184 103.025 97.884C102.417 98.0497 102.111 98.1551 102.111 98.2003V85.9883H93.1316V123.262H102.116V108.239C102.116 107.586 102.362 107.009 102.854 106.517C103.346 106.025 103.918 105.779 104.576 105.779H109.771C110.423 105.779 110.985 106.025 111.457 106.517C111.924 107.009 112.16 107.581 112.16 108.239V123.262H121.144V107.049C121.139 103.817 120.201 101.443 118.329 99.9219Z" fill="#1CE783"></path><path d="M197.227 97.6382V112.661C197.227 113.319 196.991 113.881 196.524 114.347C196.057 114.814 195.495 115.05 194.838 115.05H189.643C188.985 115.05 188.413 114.814 187.921 114.347C187.429 113.881 187.183 113.319 187.183 112.661V97.6382H178.269V113.434C178.269 116.571 179.183 118.99 181.005 120.697C182.832 122.403 185.311 123.257 188.443 123.257H197.217C200.023 123.257 202.221 122.358 203.817 120.556C205.408 118.754 206.201 116.38 206.201 113.434V97.6382H197.227Z" fill="#1CE783"></path><path d="M171.398 85.9883H162.413V123.262H171.398V85.9883Z" fill="#1CE783"></path></svg> 